<svg xmlns="http://www.w3.org/2000/svg" viewBox="0 0 96 100" width="96" height="100" role="img" aria-label="AWS User Group China">
  <!-- AWS UG China: house + chat bubble, navy outline / orange fill -->
  <path
    fill="#232f3e"
    d="M 48 2
       L 12 34
       L 6 40
       C 2 48 2 58 6 66
       C 10 76 20 84 34 86
       L 54 86
       L 66 100
       L 62 82
       C 76 78 88 66 90 50
       C 91 40 88 32 82 26
       L 84 34
       L 48 2 Z" />
  <path
    fill="rgb(254, 153, 0)"
    d="M 48 12
       L 20 40
       L 15 45
       C 12 51 12 57 15 63
       C 18 71 26 78 36 80
       L 52 80
       L 58 90
       L 55 78
       C 68 75 78 67 79 56
       C 80 48 77 42 72 38
       L 76 40
       L 48 12 Z" />
</svg>
