<?xml version="1.0" encoding="UTF-8"?>
<svg id="Layer_1" xmlns="http://www.w3.org/2000/svg" version="1.1" viewBox="0 0 394.68 385.31">
  <!-- Generator: Adobe Illustrator 30.7.0, SVG Export Plug-In . SVG Version: 2.1.4 Build 40)  -->
  <defs>
    <style>
      .st0 {
        stroke-width: .25px;
      }

      .st0, .st1 {
        fill: #f57f31;
      }

      .st0, .st1, .st2 {
        stroke: #000;
        stroke-miterlimit: 10;
      }

      .st1, .st2 {
        stroke-width: .5px;
      }

      .st2 {
        fill: #fff;
      }
    </style>
  </defs>
  <g id="SPLINE">
    <path class="st2" d="M277.02,78.69L197.48.35l-70.56,69.45L.35,194.14l20.34,20.89,21.5-20.8c-1.39,15.52.23,27.94,2.46,40.63,8.25,47.21,36.51,87.61,74.87,109.38,47.39,26.92,99.98,27.06,146.91,4.63l73.8,13.39-8.11-70.33c4.59-18.48,16.26-34.38,18.53-53.74v-46.28l12.46,11.72,11.81,10.33,19.41-19.55-117.3-115.73h0ZM321.27,237.09c-3.57,17.7-10.79,34.75-21.54,50.31l7,42.16-45.03-8.66c-39.89,23.91-89.23,24.41-130.27.09-36.09-21.4-58.56-59.72-62.08-104.93l-1.07-50.5,114.48-110.63,3.71-3.61,11.12-10.7,123.7,123.65v72.83h0Z"/>
    <path class="st1" d="M321.27,237.09c-3.57,17.7-10.79,34.75-21.54,50.31l7,42.16-45.03-8.66c-39.89,23.91-89.23,24.41-130.27.09-36.09-21.4-58.56-59.72-62.08-104.93l-1.07-50.5,114.48-110.63,3.71-3.61.23.23,134.58,134.54v51.01h0Z"/>
  </g>
  <g id="HATCH">
    <path class="st0" d="M340.21,362.26c-8.71,5.65-20.99,13.53-31.78,15.84l-57.45-10.33c-42.81,23.26-91.82,23.49-136.44-1.02-36.37-19.92-65.09-58.79-70.14-104.98l.23-26.92c8.25,47.21,36.51,87.61,74.87,109.38,47.39,26.92,99.98,27.06,146.91,4.63l73.8,13.39h0Z"/>
  </g>
</svg>